<?xml version="1.0" encoding="utf-8" standalone="no"?>
<!DOCTYPE svg PUBLIC "-//W3C//DTD SVG 1.1//EN"
  "http://www.w3.org/Graphics/SVG/1.1/DTD/svg11.dtd">
<svg xmlns:xlink="http://www.w3.org/1999/xlink" width="576pt" height="432pt" viewBox="0 0 576 432" xmlns="http://www.w3.org/2000/svg" version="1.1">
 <metadata>
  <rdf:RDF xmlns:dc="http://purl.org/dc/elements/1.1/" xmlns:cc="http://creativecommons.org/ns#" xmlns:rdf="http://www.w3.org/1999/02/22-rdf-syntax-ns#">
   <cc:Work>
    <dc:type rdf:resource="http://purl.org/dc/dcmitype/StillImage"/>
    <dc:date>2025-06-13T20:53:03.995208</dc:date>
    <dc:format>image/svg+xml</dc:format>
    <dc:creator>
     <cc:Agent>
      <dc:title>Matplotlib v3.10.3, https://matplotlib.org/</dc:title>
     </cc:Agent>
    </dc:creator>
   </cc:Work>
  </rdf:RDF>
 </metadata>
 <defs>
  <style type="text/css">*{stroke-linejoin: round; stroke-linecap: butt}</style>
 </defs>
 <g id="figure_1">
  <g id="patch_1">
   <path d="M 0 432 
L 576 432 
L 576 0 
L 0 0 
z
" style="fill: #ffffff"/>
  </g>
  <g id="axes_1">
   <g id="patch_2">
    <path d="M 72 384.48 
L 518.4 384.48 
L 518.4 51.84 
L 72 51.84 
z
" style="fill: #ffffff"/>
   </g>
   <g id="matplotlib.axis_1">
    <g id="xtick_1">
     <g id="line2d_1">
      <path d="M 77.509648 384.48 
L 77.509648 51.84 
" clip-path="url(#pc36854475b)" style="fill: none; stroke: #b0b0b0; stroke-width: 0.8; stroke-linecap: square"/>
     </g>
     <g id="line2d_2">
      <defs>
       <path id="mcce29492ec" d="M 0 0 
L 0 3.5 
" style="stroke: #000000; stroke-width: 0.8"/>
      </defs>
      <g>
       <use xlink:href="#mcce29492ec" x="77.509648" y="384.48" style="stroke: #000000; stroke-width: 0.8"/>
      </g>
     </g>
     <g id="text_1">
      <!-- −20 -->
      <g transform="translate(66.957305 399.078438) scale(0.1 -0.1)">
       <defs>
        <path id="DejaVuSans-2212" d="M 678 2272 
L 4684 2272 
L 4684 1741 
L 678 1741 
L 678 2272 
z
" transform="scale(0.015625)"/>
        <path id="DejaVuSans-32" d="M 1228 531 
L 3431 531 
L 3431 0 
L 469 0 
L 469 531 
Q 828 903 1448 1529 
Q 2069 2156 2228 2338 
Q 2531 2678 2651 2914 
Q 2772 3150 2772 3378 
Q 2772 3750 2511 3984 
Q 2250 4219 1831 4219 
Q 1534 4219 1204 4116 
Q 875 4013 500 3803 
L 500 4441 
Q 881 4594 1212 4672 
Q 1544 4750 1819 4750 
Q 2544 4750 2975 4387 
Q 3406 4025 3406 3419 
Q 3406 3131 3298 2873 
Q 3191 2616 2906 2266 
Q 2828 2175 2409 1742 
Q 1991 1309 1228 531 
z
" transform="scale(0.015625)"/>
        <path id="DejaVuSans-30" d="M 2034 4250 
Q 1547 4250 1301 3770 
Q 1056 3291 1056 2328 
Q 1056 1369 1301 889 
Q 1547 409 2034 409 
Q 2525 409 2770 889 
Q 3016 1369 3016 2328 
Q 3016 3291 2770 3770 
Q 2525 4250 2034 4250 
z
M 2034 4750 
Q 2819 4750 3233 4129 
Q 3647 3509 3647 2328 
Q 3647 1150 3233 529 
Q 2819 -91 2034 -91 
Q 1250 -91 836 529 
Q 422 1150 422 2328 
Q 422 3509 836 4129 
Q 1250 4750 2034 4750 
z
" transform="scale(0.015625)"/>
       </defs>
       <use xlink:href="#DejaVuSans-2212"/>
       <use xlink:href="#DejaVuSans-32" transform="translate(83.789062 0)"/>
       <use xlink:href="#DejaVuSans-30" transform="translate(147.412109 0)"/>
      </g>
     </g>
    </g>
    <g id="xtick_2">
     <g id="line2d_3">
      <path d="M 139.559192 384.48 
L 139.559192 51.84 
" clip-path="url(#pc36854475b)" style="fill: none; stroke: #b0b0b0; stroke-width: 0.8; stroke-linecap: square"/>
     </g>
     <g id="line2d_4">
      <g>
       <use xlink:href="#mcce29492ec" x="139.559192" y="384.48" style="stroke: #000000; stroke-width: 0.8"/>
      </g>
     </g>
     <g id="text_2">
      <!-- 0 -->
      <g transform="translate(136.377942 399.078438) scale(0.1 -0.1)">
       <use xlink:href="#DejaVuSans-30"/>
      </g>
     </g>
    </g>
    <g id="xtick_3">
     <g id="line2d_5">
      <path d="M 201.608736 384.48 
L 201.608736 51.84 
" clip-path="url(#pc36854475b)" style="fill: none; stroke: #b0b0b0; stroke-width: 0.8; stroke-linecap: square"/>
     </g>
     <g id="line2d_6">
      <g>
       <use xlink:href="#mcce29492ec" x="201.608736" y="384.48" style="stroke: #000000; stroke-width: 0.8"/>
      </g>
     </g>
     <g id="text_3">
      <!-- 20 -->
      <g transform="translate(195.246236 399.078438) scale(0.1 -0.1)">
       <use xlink:href="#DejaVuSans-32"/>
       <use xlink:href="#DejaVuSans-30" transform="translate(63.623047 0)"/>
      </g>
     </g>
    </g>
    <g id="xtick_4">
     <g id="line2d_7">
      <path d="M 263.658281 384.48 
L 263.658281 51.84 
" clip-path="url(#pc36854475b)" style="fill: none; stroke: #b0b0b0; stroke-width: 0.8; stroke-linecap: square"/>
     </g>
     <g id="line2d_8">
      <g>
       <use xlink:href="#mcce29492ec" x="263.658281" y="384.48" style="stroke: #000000; stroke-width: 0.8"/>
      </g>
     </g>
     <g id="text_4">
      <!-- 40 -->
      <g transform="translate(257.295781 399.078438) scale(0.1 -0.1)">
       <defs>
        <path id="DejaVuSans-34" d="M 2419 4116 
L 825 1625 
L 2419 1625 
L 2419 4116 
z
M 2253 4666 
L 3047 4666 
L 3047 1625 
L 3713 1625 
L 3713 1100 
L 3047 1100 
L 3047 0 
L 2419 0 
L 2419 1100 
L 313 1100 
L 313 1709 
L 2253 4666 
z
" transform="scale(0.015625)"/>
       </defs>
       <use xlink:href="#DejaVuSans-34"/>
       <use xlink:href="#DejaVuSans-30" transform="translate(63.623047 0)"/>
      </g>
     </g>
    </g>
    <g id="xtick_5">
     <g id="line2d_9">
      <path d="M 325.707825 384.48 
L 325.707825 51.84 
" clip-path="url(#pc36854475b)" style="fill: none; stroke: #b0b0b0; stroke-width: 0.8; stroke-linecap: square"/>
     </g>
     <g id="line2d_10">
      <g>
       <use xlink:href="#mcce29492ec" x="325.707825" y="384.48" style="stroke: #000000; stroke-width: 0.8"/>
      </g>
     </g>
     <g id="text_5">
      <!-- 60 -->
      <g transform="translate(319.345325 399.078438) scale(0.1 -0.1)">
       <defs>
        <path id="DejaVuSans-36" d="M 2113 2584 
Q 1688 2584 1439 2293 
Q 1191 2003 1191 1497 
Q 1191 994 1439 701 
Q 1688 409 2113 409 
Q 2538 409 2786 701 
Q 3034 994 3034 1497 
Q 3034 2003 2786 2293 
Q 2538 2584 2113 2584 
z
M 3366 4563 
L 3366 3988 
Q 3128 4100 2886 4159 
Q 2644 4219 2406 4219 
Q 1781 4219 1451 3797 
Q 1122 3375 1075 2522 
Q 1259 2794 1537 2939 
Q 1816 3084 2150 3084 
Q 2853 3084 3261 2657 
Q 3669 2231 3669 1497 
Q 3669 778 3244 343 
Q 2819 -91 2113 -91 
Q 1303 -91 875 529 
Q 447 1150 447 2328 
Q 447 3434 972 4092 
Q 1497 4750 2381 4750 
Q 2619 4750 2861 4703 
Q 3103 4656 3366 4563 
z
" transform="scale(0.015625)"/>
       </defs>
       <use xlink:href="#DejaVuSans-36"/>
       <use xlink:href="#DejaVuSans-30" transform="translate(63.623047 0)"/>
      </g>
     </g>
    </g>
    <g id="xtick_6">
     <g id="line2d_11">
      <path d="M 387.757369 384.48 
L 387.757369 51.84 
" clip-path="url(#pc36854475b)" style="fill: none; stroke: #b0b0b0; stroke-width: 0.8; stroke-linecap: square"/>
     </g>
     <g id="line2d_12">
      <g>
       <use xlink:href="#mcce29492ec" x="387.757369" y="384.48" style="stroke: #000000; stroke-width: 0.8"/>
      </g>
     </g>
     <g id="text_6">
      <!-- 80 -->
      <g transform="translate(381.394869 399.078438) scale(0.1 -0.1)">
       <defs>
        <path id="DejaVuSans-38" d="M 2034 2216 
Q 1584 2216 1326 1975 
Q 1069 1734 1069 1313 
Q 1069 891 1326 650 
Q 1584 409 2034 409 
Q 2484 409 2743 651 
Q 3003 894 3003 1313 
Q 3003 1734 2745 1975 
Q 2488 2216 2034 2216 
z
M 1403 2484 
Q 997 2584 770 2862 
Q 544 3141 544 3541 
Q 544 4100 942 4425 
Q 1341 4750 2034 4750 
Q 2731 4750 3128 4425 
Q 3525 4100 3525 3541 
Q 3525 3141 3298 2862 
Q 3072 2584 2669 2484 
Q 3125 2378 3379 2068 
Q 3634 1759 3634 1313 
Q 3634 634 3220 271 
Q 2806 -91 2034 -91 
Q 1263 -91 848 271 
Q 434 634 434 1313 
Q 434 1759 690 2068 
Q 947 2378 1403 2484 
z
M 1172 3481 
Q 1172 3119 1398 2916 
Q 1625 2713 2034 2713 
Q 2441 2713 2670 2916 
Q 2900 3119 2900 3481 
Q 2900 3844 2670 4047 
Q 2441 4250 2034 4250 
Q 1625 4250 1398 4047 
Q 1172 3844 1172 3481 
z
" transform="scale(0.015625)"/>
       </defs>
       <use xlink:href="#DejaVuSans-38"/>
       <use xlink:href="#DejaVuSans-30" transform="translate(63.623047 0)"/>
      </g>
     </g>
    </g>
    <g id="xtick_7">
     <g id="line2d_13">
      <path d="M 449.806913 384.48 
L 449.806913 51.84 
" clip-path="url(#pc36854475b)" style="fill: none; stroke: #b0b0b0; stroke-width: 0.8; stroke-linecap: square"/>
     </g>
     <g id="line2d_14">
      <g>
       <use xlink:href="#mcce29492ec" x="449.806913" y="384.48" style="stroke: #000000; stroke-width: 0.8"/>
      </g>
     </g>
     <g id="text_7">
      <!-- 100 -->
      <g transform="translate(440.263163 399.078438) scale(0.1 -0.1)">
       <defs>
        <path id="DejaVuSans-31" d="M 794 531 
L 1825 531 
L 1825 4091 
L 703 3866 
L 703 4441 
L 1819 4666 
L 2450 4666 
L 2450 531 
L 3481 531 
L 3481 0 
L 794 0 
L 794 531 
z
" transform="scale(0.015625)"/>
       </defs>
       <use xlink:href="#DejaVuSans-31"/>
       <use xlink:href="#DejaVuSans-30" transform="translate(63.623047 0)"/>
       <use xlink:href="#DejaVuSans-30" transform="translate(127.246094 0)"/>
      </g>
     </g>
    </g>
    <g id="xtick_8">
     <g id="line2d_15">
      <path d="M 511.856457 384.48 
L 511.856457 51.84 
" clip-path="url(#pc36854475b)" style="fill: none; stroke: #b0b0b0; stroke-width: 0.8; stroke-linecap: square"/>
     </g>
     <g id="line2d_16">
      <g>
       <use xlink:href="#mcce29492ec" x="511.856457" y="384.48" style="stroke: #000000; stroke-width: 0.8"/>
      </g>
     </g>
     <g id="text_8">
      <!-- 120 -->
      <g transform="translate(502.312707 399.078438) scale(0.1 -0.1)">
       <use xlink:href="#DejaVuSans-31"/>
       <use xlink:href="#DejaVuSans-32" transform="translate(63.623047 0)"/>
       <use xlink:href="#DejaVuSans-30" transform="translate(127.246094 0)"/>
      </g>
     </g>
    </g>
    <g id="text_9">
     <!-- X coordinate -->
     <g transform="translate(263.517187 412.756563) scale(0.1 -0.1)">
      <defs>
       <path id="DejaVuSans-58" d="M 403 4666 
L 1081 4666 
L 2241 2931 
L 3406 4666 
L 4084 4666 
L 2584 2425 
L 4184 0 
L 3506 0 
L 2194 1984 
L 872 0 
L 191 0 
L 1856 2491 
L 403 4666 
z
" transform="scale(0.015625)"/>
       <path id="DejaVuSans-20" transform="scale(0.015625)"/>
       <path id="DejaVuSans-63" d="M 3122 3366 
L 3122 2828 
Q 2878 2963 2633 3030 
Q 2388 3097 2138 3097 
Q 1578 3097 1268 2742 
Q 959 2388 959 1747 
Q 959 1106 1268 751 
Q 1578 397 2138 397 
Q 2388 397 2633 464 
Q 2878 531 3122 666 
L 3122 134 
Q 2881 22 2623 -34 
Q 2366 -91 2075 -91 
Q 1284 -91 818 406 
Q 353 903 353 1747 
Q 353 2603 823 3093 
Q 1294 3584 2113 3584 
Q 2378 3584 2631 3529 
Q 2884 3475 3122 3366 
z
" transform="scale(0.015625)"/>
       <path id="DejaVuSans-6f" d="M 1959 3097 
Q 1497 3097 1228 2736 
Q 959 2375 959 1747 
Q 959 1119 1226 758 
Q 1494 397 1959 397 
Q 2419 397 2687 759 
Q 2956 1122 2956 1747 
Q 2956 2369 2687 2733 
Q 2419 3097 1959 3097 
z
M 1959 3584 
Q 2709 3584 3137 3096 
Q 3566 2609 3566 1747 
Q 3566 888 3137 398 
Q 2709 -91 1959 -91 
Q 1206 -91 779 398 
Q 353 888 353 1747 
Q 353 2609 779 3096 
Q 1206 3584 1959 3584 
z
" transform="scale(0.015625)"/>
       <path id="DejaVuSans-72" d="M 2631 2963 
Q 2534 3019 2420 3045 
Q 2306 3072 2169 3072 
Q 1681 3072 1420 2755 
Q 1159 2438 1159 1844 
L 1159 0 
L 581 0 
L 581 3500 
L 1159 3500 
L 1159 2956 
Q 1341 3275 1631 3429 
Q 1922 3584 2338 3584 
Q 2397 3584 2469 3576 
Q 2541 3569 2628 3553 
L 2631 2963 
z
" transform="scale(0.015625)"/>
       <path id="DejaVuSans-64" d="M 2906 2969 
L 2906 4863 
L 3481 4863 
L 3481 0 
L 2906 0 
L 2906 525 
Q 2725 213 2448 61 
Q 2172 -91 1784 -91 
Q 1150 -91 751 415 
Q 353 922 353 1747 
Q 353 2572 751 3078 
Q 1150 3584 1784 3584 
Q 2172 3584 2448 3432 
Q 2725 3281 2906 2969 
z
M 947 1747 
Q 947 1113 1208 752 
Q 1469 391 1925 391 
Q 2381 391 2643 752 
Q 2906 1113 2906 1747 
Q 2906 2381 2643 2742 
Q 2381 3103 1925 3103 
Q 1469 3103 1208 2742 
Q 947 2381 947 1747 
z
" transform="scale(0.015625)"/>
       <path id="DejaVuSans-69" d="M 603 3500 
L 1178 3500 
L 1178 0 
L 603 0 
L 603 3500 
z
M 603 4863 
L 1178 4863 
L 1178 4134 
L 603 4134 
L 603 4863 
z
" transform="scale(0.015625)"/>
       <path id="DejaVuSans-6e" d="M 3513 2113 
L 3513 0 
L 2938 0 
L 2938 2094 
Q 2938 2591 2744 2837 
Q 2550 3084 2163 3084 
Q 1697 3084 1428 2787 
Q 1159 2491 1159 1978 
L 1159 0 
L 581 0 
L 581 3500 
L 1159 3500 
L 1159 2956 
Q 1366 3272 1645 3428 
Q 1925 3584 2291 3584 
Q 2894 3584 3203 3211 
Q 3513 2838 3513 2113 
z
" transform="scale(0.015625)"/>
       <path id="DejaVuSans-61" d="M 2194 1759 
Q 1497 1759 1228 1600 
Q 959 1441 959 1056 
Q 959 750 1161 570 
Q 1363 391 1709 391 
Q 2188 391 2477 730 
Q 2766 1069 2766 1631 
L 2766 1759 
L 2194 1759 
z
M 3341 1997 
L 3341 0 
L 2766 0 
L 2766 531 
Q 2569 213 2275 61 
Q 1981 -91 1556 -91 
Q 1019 -91 701 211 
Q 384 513 384 1019 
Q 384 1609 779 1909 
Q 1175 2209 1959 2209 
L 2766 2209 
L 2766 2266 
Q 2766 2663 2505 2880 
Q 2244 3097 1772 3097 
Q 1472 3097 1187 3025 
Q 903 2953 641 2809 
L 641 3341 
Q 956 3463 1253 3523 
Q 1550 3584 1831 3584 
Q 2591 3584 2966 3190 
Q 3341 2797 3341 1997 
z
" transform="scale(0.015625)"/>
       <path id="DejaVuSans-74" d="M 1172 4494 
L 1172 3500 
L 2356 3500 
L 2356 3053 
L 1172 3053 
L 1172 1153 
Q 1172 725 1289 603 
Q 1406 481 1766 481 
L 2356 481 
L 2356 0 
L 1766 0 
Q 1100 0 847 248 
Q 594 497 594 1153 
L 594 3053 
L 172 3053 
L 172 3500 
L 594 3500 
L 594 4494 
L 1172 4494 
z
" transform="scale(0.015625)"/>
       <path id="DejaVuSans-65" d="M 3597 1894 
L 3597 1613 
L 953 1613 
Q 991 1019 1311 708 
Q 1631 397 2203 397 
Q 2534 397 2845 478 
Q 3156 559 3463 722 
L 3463 178 
Q 3153 47 2828 -22 
Q 2503 -91 2169 -91 
Q 1331 -91 842 396 
Q 353 884 353 1716 
Q 353 2575 817 3079 
Q 1281 3584 2069 3584 
Q 2775 3584 3186 3129 
Q 3597 2675 3597 1894 
z
M 3022 2063 
Q 3016 2534 2758 2815 
Q 2500 3097 2075 3097 
Q 1594 3097 1305 2825 
Q 1016 2553 972 2059 
L 3022 2063 
z
" transform="scale(0.015625)"/>
      </defs>
      <use xlink:href="#DejaVuSans-58"/>
      <use xlink:href="#DejaVuSans-20" transform="translate(68.505859 0)"/>
      <use xlink:href="#DejaVuSans-63" transform="translate(100.292969 0)"/>
      <use xlink:href="#DejaVuSans-6f" transform="translate(155.273438 0)"/>
      <use xlink:href="#DejaVuSans-6f" transform="translate(216.455078 0)"/>
      <use xlink:href="#DejaVuSans-72" transform="translate(277.636719 0)"/>
      <use xlink:href="#DejaVuSans-64" transform="translate(317 0)"/>
      <use xlink:href="#DejaVuSans-69" transform="translate(380.476562 0)"/>
      <use xlink:href="#DejaVuSans-6e" transform="translate(408.259766 0)"/>
      <use xlink:href="#DejaVuSans-61" transform="translate(471.638672 0)"/>
      <use xlink:href="#DejaVuSans-74" transform="translate(532.917969 0)"/>
      <use xlink:href="#DejaVuSans-65" transform="translate(572.126953 0)"/>
     </g>
    </g>
   </g>
   <g id="matplotlib.axis_2">
    <g id="ytick_1">
     <g id="line2d_17">
      <path d="M 72 373.869481 
L 518.4 373.869481 
" clip-path="url(#pc36854475b)" style="fill: none; stroke: #b0b0b0; stroke-width: 0.8; stroke-linecap: square"/>
     </g>
     <g id="line2d_18">
      <defs>
       <path id="m30dc33eed8" d="M 0 0 
L -3.5 0 
" style="stroke: #000000; stroke-width: 0.8"/>
      </defs>
      <g>
       <use xlink:href="#m30dc33eed8" x="72" y="373.869481" style="stroke: #000000; stroke-width: 0.8"/>
      </g>
     </g>
     <g id="text_10">
      <!-- 0 -->
      <g transform="translate(58.6375 377.6687) scale(0.1 -0.1)">
       <use xlink:href="#DejaVuSans-30"/>
      </g>
     </g>
    </g>
    <g id="ytick_2">
     <g id="line2d_19">
      <path d="M 72 311.819937 
L 518.4 311.819937 
" clip-path="url(#pc36854475b)" style="fill: none; stroke: #b0b0b0; stroke-width: 0.8; stroke-linecap: square"/>
     </g>
     <g id="line2d_20">
      <g>
       <use xlink:href="#m30dc33eed8" x="72" y="311.819937" style="stroke: #000000; stroke-width: 0.8"/>
      </g>
     </g>
     <g id="text_11">
      <!-- 20 -->
      <g transform="translate(52.275 315.619155) scale(0.1 -0.1)">
       <use xlink:href="#DejaVuSans-32"/>
       <use xlink:href="#DejaVuSans-30" transform="translate(63.623047 0)"/>
      </g>
     </g>
    </g>
    <g id="ytick_3">
     <g id="line2d_21">
      <path d="M 72 249.770393 
L 518.4 249.770393 
" clip-path="url(#pc36854475b)" style="fill: none; stroke: #b0b0b0; stroke-width: 0.8; stroke-linecap: square"/>
     </g>
     <g id="line2d_22">
      <g>
       <use xlink:href="#m30dc33eed8" x="72" y="249.770393" style="stroke: #000000; stroke-width: 0.8"/>
      </g>
     </g>
     <g id="text_12">
      <!-- 40 -->
      <g transform="translate(52.275 253.569611) scale(0.1 -0.1)">
       <use xlink:href="#DejaVuSans-34"/>
       <use xlink:href="#DejaVuSans-30" transform="translate(63.623047 0)"/>
      </g>
     </g>
    </g>
    <g id="ytick_4">
     <g id="line2d_23">
      <path d="M 72 187.720849 
L 518.4 187.720849 
" clip-path="url(#pc36854475b)" style="fill: none; stroke: #b0b0b0; stroke-width: 0.8; stroke-linecap: square"/>
     </g>
     <g id="line2d_24">
      <g>
       <use xlink:href="#m30dc33eed8" x="72" y="187.720849" style="stroke: #000000; stroke-width: 0.8"/>
      </g>
     </g>
     <g id="text_13">
      <!-- 60 -->
      <g transform="translate(52.275 191.520067) scale(0.1 -0.1)">
       <use xlink:href="#DejaVuSans-36"/>
       <use xlink:href="#DejaVuSans-30" transform="translate(63.623047 0)"/>
      </g>
     </g>
    </g>
    <g id="ytick_5">
     <g id="line2d_25">
      <path d="M 72 125.671305 
L 518.4 125.671305 
" clip-path="url(#pc36854475b)" style="fill: none; stroke: #b0b0b0; stroke-width: 0.8; stroke-linecap: square"/>
     </g>
     <g id="line2d_26">
      <g>
       <use xlink:href="#m30dc33eed8" x="72" y="125.671305" style="stroke: #000000; stroke-width: 0.8"/>
      </g>
     </g>
     <g id="text_14">
      <!-- 80 -->
      <g transform="translate(52.275 129.470523) scale(0.1 -0.1)">
       <use xlink:href="#DejaVuSans-38"/>
       <use xlink:href="#DejaVuSans-30" transform="translate(63.623047 0)"/>
      </g>
     </g>
    </g>
    <g id="ytick_6">
     <g id="line2d_27">
      <path d="M 72 63.62176 
L 518.4 63.62176 
" clip-path="url(#pc36854475b)" style="fill: none; stroke: #b0b0b0; stroke-width: 0.8; stroke-linecap: square"/>
     </g>
     <g id="line2d_28">
      <g>
       <use xlink:href="#m30dc33eed8" x="72" y="63.62176" style="stroke: #000000; stroke-width: 0.8"/>
      </g>
     </g>
     <g id="text_15">
      <!-- 100 -->
      <g transform="translate(45.9125 67.420979) scale(0.1 -0.1)">
       <use xlink:href="#DejaVuSans-31"/>
       <use xlink:href="#DejaVuSans-30" transform="translate(63.623047 0)"/>
       <use xlink:href="#DejaVuSans-30" transform="translate(127.246094 0)"/>
      </g>
     </g>
    </g>
    <g id="text_16">
     <!-- Y coordinate -->
     <g transform="translate(39.832812 249.471719) rotate(-90) scale(0.1 -0.1)">
      <defs>
       <path id="DejaVuSans-59" d="M -13 4666 
L 666 4666 
L 1959 2747 
L 3244 4666 
L 3922 4666 
L 2272 2222 
L 2272 0 
L 1638 0 
L 1638 2222 
L -13 4666 
z
" transform="scale(0.015625)"/>
      </defs>
      <use xlink:href="#DejaVuSans-59"/>
      <use xlink:href="#DejaVuSans-20" transform="translate(61.083984 0)"/>
      <use xlink:href="#DejaVuSans-63" transform="translate(92.871094 0)"/>
      <use xlink:href="#DejaVuSans-6f" transform="translate(147.851562 0)"/>
      <use xlink:href="#DejaVuSans-6f" transform="translate(209.033203 0)"/>
      <use xlink:href="#DejaVuSans-72" transform="translate(270.214844 0)"/>
      <use xlink:href="#DejaVuSans-64" transform="translate(309.578125 0)"/>
      <use xlink:href="#DejaVuSans-69" transform="translate(373.054688 0)"/>
      <use xlink:href="#DejaVuSans-6e" transform="translate(400.837891 0)"/>
      <use xlink:href="#DejaVuSans-61" transform="translate(464.216797 0)"/>
      <use xlink:href="#DejaVuSans-74" transform="translate(525.496094 0)"/>
      <use xlink:href="#DejaVuSans-65" transform="translate(564.705078 0)"/>
     </g>
    </g>
   </g>
   <g id="PathCollection_1">
    <defs>
     <path id="mdc18f69490" d="M 0 3.535534 
C 0.937635 3.535534 1.836992 3.163008 2.5 2.5 
C 3.163008 1.836992 3.535534 0.937635 3.535534 0 
C 3.535534 -0.937635 3.163008 -1.836992 2.5 -2.5 
C 1.836992 -3.163008 0.937635 -3.535534 0 -3.535534 
C -0.937635 -3.535534 -1.836992 -3.163008 -2.5 -2.5 
C -3.163008 -1.836992 -3.535534 -0.937635 -3.535534 0 
C -3.535534 0.937635 -3.163008 1.836992 -2.5 2.5 
C -1.836992 3.163008 -0.937635 3.535534 0 3.535534 
z
" style="stroke: #0000ff"/>
    </defs>
    <g clip-path="url(#pc36854475b)">
     <use xlink:href="#mdc18f69490" x="310.166387" y="110.501895" style="fill: #0000ff; stroke: #0000ff"/>
     <use xlink:href="#mdc18f69490" x="413.714462" y="208.38021" style="fill: #0000ff; stroke: #0000ff"/>
     <use xlink:href="#mdc18f69490" x="349.268696" y="356.719376" style="fill: #0000ff; stroke: #0000ff"/>
     <use xlink:href="#mdc18f69490" x="281.499925" y="129.232887" style="fill: #0000ff; stroke: #0000ff"/>
     <use xlink:href="#mdc18f69490" x="353.33049" y="314.879985" style="fill: #0000ff; stroke: #0000ff"/>
     <use xlink:href="#mdc18f69490" x="413.868559" y="324.397354" style="fill: #0000ff; stroke: #0000ff"/>
     <use xlink:href="#mdc18f69490" x="168.572024" y="104.221525" style="fill: #0000ff; stroke: #0000ff"/>
     <use xlink:href="#mdc18f69490" x="166.061342" y="284.064207" style="fill: #0000ff; stroke: #0000ff"/>
     <use xlink:href="#mdc18f69490" x="237.64809" y="291.406746" style="fill: #0000ff; stroke: #0000ff"/>
     <use xlink:href="#mdc18f69490" x="449.682795" y="319.736374" style="fill: #0000ff; stroke: #0000ff"/>
     <use xlink:href="#mdc18f69490" x="247.043424" y="171.29588" style="fill: #0000ff; stroke: #0000ff"/>
     <use xlink:href="#mdc18f69490" x="143.196074" y="303.537704" style="fill: #0000ff; stroke: #0000ff"/>
     <use xlink:href="#mdc18f69490" x="232.013909" y="269.627918" style="fill: #0000ff; stroke: #0000ff"/>
     <use xlink:href="#mdc18f69490" x="219.799078" y="135.570656" style="fill: #0000ff; stroke: #0000ff"/>
     <use xlink:href="#mdc18f69490" x="142.842457" y="183.70088" style="fill: #0000ff; stroke: #0000ff"/>
     <use xlink:href="#mdc18f69490" x="279.964843" y="189.209573" style="fill: #0000ff; stroke: #0000ff"/>
     <use xlink:href="#mdc18f69490" x="276.295753" y="270.755968" style="fill: #0000ff; stroke: #0000ff"/>
     <use xlink:href="#mdc18f69490" x="150.054648" y="132.402614" style="fill: #0000ff; stroke: #0000ff"/>
     <use xlink:href="#mdc18f69490" x="150.407922" y="181.869505" style="fill: #0000ff; stroke: #0000ff"/>
     <use xlink:href="#mdc18f69490" x="321.757994" y="216.840788" style="fill: #0000ff; stroke: #0000ff"/>
     <use xlink:href="#mdc18f69490" x="299.123072" y="158.477665" style="fill: #0000ff; stroke: #0000ff"/>
     <use xlink:href="#mdc18f69490" x="200.934386" y="282.464357" style="fill: #0000ff; stroke: #0000ff"/>
     <use xlink:href="#mdc18f69490" x="314.970676" y="66.96" style="fill: #0000ff; stroke: #0000ff"/>
     <use xlink:href="#mdc18f69490" x="201.56714" y="321.110943" style="fill: #0000ff; stroke: #0000ff"/>
     <use xlink:href="#mdc18f69490" x="408.790756" y="335.25709" style="fill: #0000ff; stroke: #0000ff"/>
     <use xlink:href="#mdc18f69490" x="419.001438" y="142.396324" style="fill: #0000ff; stroke: #0000ff"/>
     <use xlink:href="#mdc18f69490" x="362.594301" y="275.359531" style="fill: #0000ff; stroke: #0000ff"/>
     <use xlink:href="#mdc18f69490" x="410.969637" y="314.461094" style="fill: #0000ff; stroke: #0000ff"/>
     <use xlink:href="#mdc18f69490" x="303.506943" y="263.951747" style="fill: #0000ff; stroke: #0000ff"/>
     <use xlink:href="#mdc18f69490" x="359.054954" y="180.779158" style="fill: #0000ff; stroke: #0000ff"/>
     <use xlink:href="#mdc18f69490" x="351.836489" y="243.194481" style="fill: #0000ff; stroke: #0000ff"/>
     <use xlink:href="#mdc18f69490" x="395.097375" y="298.084807" style="fill: #0000ff; stroke: #0000ff"/>
     <use xlink:href="#mdc18f69490" x="372.485463" y="247.47533" style="fill: #0000ff; stroke: #0000ff"/>
     <use xlink:href="#mdc18f69490" x="314.366396" y="289.251077" style="fill: #0000ff; stroke: #0000ff"/>
     <use xlink:href="#mdc18f69490" x="320.431406" y="225.805103" style="fill: #0000ff; stroke: #0000ff"/>
     <use xlink:href="#mdc18f69490" x="196.844027" y="295.715059" style="fill: #0000ff; stroke: #0000ff"/>
     <use xlink:href="#mdc18f69490" x="144.888109" y="322.940254" style="fill: #0000ff; stroke: #0000ff"/>
     <use xlink:href="#mdc18f69490" x="187.668081" y="345.035377" style="fill: #0000ff; stroke: #0000ff"/>
     <use xlink:href="#mdc18f69490" x="217.926902" y="183.553581" style="fill: #0000ff; stroke: #0000ff"/>
     <use xlink:href="#mdc18f69490" x="225.117564" y="130.376734" style="fill: #0000ff; stroke: #0000ff"/>
     <use xlink:href="#mdc18f69490" x="217.50347" y="138.906013" style="fill: #0000ff; stroke: #0000ff"/>
     <use xlink:href="#mdc18f69490" x="334.50102" y="74.098166" style="fill: #0000ff; stroke: #0000ff"/>
     <use xlink:href="#mdc18f69490" x="363.468027" y="81.291139" style="fill: #0000ff; stroke: #0000ff"/>
     <use xlink:href="#mdc18f69490" x="255.818913" y="317.012545" style="fill: #0000ff; stroke: #0000ff"/>
     <use xlink:href="#mdc18f69490" x="301.10054" y="176.307121" style="fill: #0000ff; stroke: #0000ff"/>
     <use xlink:href="#mdc18f69490" x="213.164575" y="324.278591" style="fill: #0000ff; stroke: #0000ff"/>
     <use xlink:href="#mdc18f69490" x="387.807138" y="135.99843" style="fill: #0000ff; stroke: #0000ff"/>
     <use xlink:href="#mdc18f69490" x="331.981427" y="283.220302" style="fill: #0000ff; stroke: #0000ff"/>
     <use xlink:href="#mdc18f69490" x="186.268003" y="341.375402" style="fill: #0000ff; stroke: #0000ff"/>
     <use xlink:href="#mdc18f69490" x="373.694035" y="183.123677" style="fill: #0000ff; stroke: #0000ff"/>
     <use xlink:href="#mdc18f69490" x="306.528147" y="172.515212" style="fill: #0000ff; stroke: #0000ff"/>
     <use xlink:href="#mdc18f69490" x="249.920812" y="276.72925" style="fill: #0000ff; stroke: #0000ff"/>
     <use xlink:href="#mdc18f69490" x="424.864793" y="183.192877" style="fill: #0000ff; stroke: #0000ff"/>
     <use xlink:href="#mdc18f69490" x="156.640783" y="131.918973" style="fill: #0000ff; stroke: #0000ff"/>
     <use xlink:href="#mdc18f69490" x="151.466543" y="343.420286" style="fill: #0000ff; stroke: #0000ff"/>
     <use xlink:href="#mdc18f69490" x="422.075699" y="183.795083" style="fill: #0000ff; stroke: #0000ff"/>
     <use xlink:href="#mdc18f69490" x="208.202531" y="317.156788" style="fill: #0000ff; stroke: #0000ff"/>
     <use xlink:href="#mdc18f69490" x="398.088532" y="98.461175" style="fill: #0000ff; stroke: #0000ff"/>
     <use xlink:href="#mdc18f69490" x="338.302781" y="210.469533" style="fill: #0000ff; stroke: #0000ff"/>
     <use xlink:href="#mdc18f69490" x="312.74862" y="369.109233" style="fill: #0000ff; stroke: #0000ff"/>
     <use xlink:href="#mdc18f69490" x="437.511677" y="239.876532" style="fill: #0000ff; stroke: #0000ff"/>
     <use xlink:href="#mdc18f69490" x="212.964398" y="217.655426" style="fill: #0000ff; stroke: #0000ff"/>
     <use xlink:href="#mdc18f69490" x="239.573047" y="311.615226" style="fill: #0000ff; stroke: #0000ff"/>
     <use xlink:href="#mdc18f69490" x="264.617165" y="355.805422" style="fill: #0000ff; stroke: #0000ff"/>
     <use xlink:href="#mdc18f69490" x="144.286807" y="68.115626" style="fill: #0000ff; stroke: #0000ff"/>
     <use xlink:href="#mdc18f69490" x="228.105918" y="178.011096" style="fill: #0000ff; stroke: #0000ff"/>
     <use xlink:href="#mdc18f69490" x="155.104006" y="180.607667" style="fill: #0000ff; stroke: #0000ff"/>
     <use xlink:href="#mdc18f69490" x="383.183639" y="335.67262" style="fill: #0000ff; stroke: #0000ff"/>
     <use xlink:href="#mdc18f69490" x="325.309035" y="136.2332" style="fill: #0000ff; stroke: #0000ff"/>
     <use xlink:href="#mdc18f69490" x="255.133641" y="218.581597" style="fill: #0000ff; stroke: #0000ff"/>
     <use xlink:href="#mdc18f69490" x="160.751431" y="283.606596" style="fill: #0000ff; stroke: #0000ff"/>
     <use xlink:href="#mdc18f69490" x="212.19206" y="224.705501" style="fill: #0000ff; stroke: #0000ff"/>
     <use xlink:href="#mdc18f69490" x="307.646865" y="148.64761" style="fill: #0000ff; stroke: #0000ff"/>
     <use xlink:href="#mdc18f69490" x="346.715447" y="280.289866" style="fill: #0000ff; stroke: #0000ff"/>
     <use xlink:href="#mdc18f69490" x="383.638041" y="268.266178" style="fill: #0000ff; stroke: #0000ff"/>
     <use xlink:href="#mdc18f69490" x="163.768017" y="320.279494" style="fill: #0000ff; stroke: #0000ff"/>
     <use xlink:href="#mdc18f69490" x="187.026404" y="268.766387" style="fill: #0000ff; stroke: #0000ff"/>
     <use xlink:href="#mdc18f69490" x="372.86137" y="366.364921" style="fill: #0000ff; stroke: #0000ff"/>
     <use xlink:href="#mdc18f69490" x="168.030383" y="339.904786" style="fill: #0000ff; stroke: #0000ff"/>
     <use xlink:href="#mdc18f69490" x="308.650261" y="108.043794" style="fill: #0000ff; stroke: #0000ff"/>
     <use xlink:href="#mdc18f69490" x="140.717205" y="189.821702" style="fill: #0000ff; stroke: #0000ff"/>
     <use xlink:href="#mdc18f69490" x="437.457334" y="222.301941" style="fill: #0000ff; stroke: #0000ff"/>
     <use xlink:href="#mdc18f69490" x="205.269572" y="168.479109" style="fill: #0000ff; stroke: #0000ff"/>
     <use xlink:href="#mdc18f69490" x="381.210886" y="306.102986" style="fill: #0000ff; stroke: #0000ff"/>
     <use xlink:href="#mdc18f69490" x="234.724527" y="297.331688" style="fill: #0000ff; stroke: #0000ff"/>
     <use xlink:href="#mdc18f69490" x="217.324555" y="102.801987" style="fill: #0000ff; stroke: #0000ff"/>
     <use xlink:href="#mdc18f69490" x="391.22871" y="264.898335" style="fill: #0000ff; stroke: #0000ff"/>
     <use xlink:href="#mdc18f69490" x="327.362949" y="256.23648" style="fill: #0000ff; stroke: #0000ff"/>
     <use xlink:href="#mdc18f69490" x="367.60823" y="369.36" style="fill: #0000ff; stroke: #0000ff"/>
     <use xlink:href="#mdc18f69490" x="341.159554" y="247.800879" style="fill: #0000ff; stroke: #0000ff"/>
     <use xlink:href="#mdc18f69490" x="318.005756" y="312.90402" style="fill: #0000ff; stroke: #0000ff"/>
     <use xlink:href="#mdc18f69490" x="240.237909" y="101.856622" style="fill: #0000ff; stroke: #0000ff"/>
     <use xlink:href="#mdc18f69490" x="387.114303" y="87.288038" style="fill: #0000ff; stroke: #0000ff"/>
     <use xlink:href="#mdc18f69490" x="235.028463" y="302.403371" style="fill: #0000ff; stroke: #0000ff"/>
     <use xlink:href="#mdc18f69490" x="194.310558" y="322.666479" style="fill: #0000ff; stroke: #0000ff"/>
     <use xlink:href="#mdc18f69490" x="209.739106" y="326.86986" style="fill: #0000ff; stroke: #0000ff"/>
     <use xlink:href="#mdc18f69490" x="198.729688" y="180.428545" style="fill: #0000ff; stroke: #0000ff"/>
     <use xlink:href="#mdc18f69490" x="321.559535" y="309.021394" style="fill: #0000ff; stroke: #0000ff"/>
     <use xlink:href="#mdc18f69490" x="185.147424" y="162.337135" style="fill: #0000ff; stroke: #0000ff"/>
     <use xlink:href="#mdc18f69490" x="289.065591" y="178.668464" style="fill: #0000ff; stroke: #0000ff"/>
    </g>
   </g>
   <g id="PathCollection_2">
    <defs>
     <path id="C0_0_6e7fa05fa4" d="M -6.123724 6.123724 
L 6.123724 6.123724 
L 6.123724 -6.123724 
L -6.123724 -6.123724 
z
"/>
    </defs>
    <g clip-path="url(#pc36854475b)">
     <use xlink:href="#C0_0_6e7fa05fa4" x="419.981924" y="313.238915" style="fill: #ff0000"/>
    </g>
    <g clip-path="url(#pc36854475b)">
     <use xlink:href="#C0_0_6e7fa05fa4" x="401.350411" y="186.408101" style="fill: #ff0000"/>
    </g>
    <g clip-path="url(#pc36854475b)">
     <use xlink:href="#C0_0_6e7fa05fa4" x="244.023894" y="321.224231" style="fill: #ff0000"/>
    </g>
    <g clip-path="url(#pc36854475b)">
     <use xlink:href="#C0_0_6e7fa05fa4" x="294.528731" y="250.642466" style="fill: #ff0000"/>
    </g>
    <g clip-path="url(#pc36854475b)">
     <use xlink:href="#C0_0_6e7fa05fa4" x="148.831187" y="223.771538" style="fill: #ff0000"/>
    </g>
    <g clip-path="url(#pc36854475b)">
     <use xlink:href="#C0_0_6e7fa05fa4" x="151.571579" y="356.778568" style="fill: #ff0000"/>
    </g>
    <g clip-path="url(#pc36854475b)">
     <use xlink:href="#C0_0_6e7fa05fa4" x="231.4063" y="100.648101" style="fill: #ff0000"/>
    </g>
    <g clip-path="url(#pc36854475b)">
     <use xlink:href="#C0_0_6e7fa05fa4" x="411.700712" y="260.076183" style="fill: #ff0000"/>
    </g>
    <g clip-path="url(#pc36854475b)">
     <use xlink:href="#C0_0_6e7fa05fa4" x="208.295816" y="245.943367" style="fill: #ff0000"/>
    </g>
    <g clip-path="url(#pc36854475b)">
     <use xlink:href="#C0_0_6e7fa05fa4" x="172.61849" y="209.858195" style="fill: #ff0000"/>
    </g>
   </g>
   <g id="PathCollection_3">
    <path d="M 413.8582 319.36264 
L 426.105648 319.36264 
L 426.105648 307.115191 
L 413.8582 307.115191 
L 413.8582 319.36264 
z
" clip-path="url(#pc36854475b)" style="fill: none; stroke: #000000; stroke-width: 4"/>
    <path d="M 395.226687 192.531825 
L 407.474136 192.531825 
L 407.474136 180.284377 
L 395.226687 180.284377 
L 395.226687 192.531825 
z
" clip-path="url(#pc36854475b)" style="fill: none; stroke: #000000; stroke-width: 4"/>
    <path d="M 202.172092 252.067091 
L 214.41954 252.067091 
L 214.41954 239.819643 
L 202.172092 239.819643 
L 202.172092 252.067091 
z
" clip-path="url(#pc36854475b)" style="fill: none; stroke: #000000; stroke-width: 4"/>
    <path d="M 166.494765 215.981919 
L 178.742214 215.981919 
L 178.742214 203.73447 
L 166.494765 203.73447 
L 166.494765 215.981919 
z
" clip-path="url(#pc36854475b)" style="fill: none; stroke: #000000; stroke-width: 4"/>
   </g>
   <g id="patch_3">
    <path d="M 349.268696 356.719376 
L 349.58387 356.343477 
L 349.66431 356.474298 
L 419.981112 313.237594 
L 419.982737 313.240237 
L 349.665935 356.476941 
L 349.746374 356.607761 
z
" clip-path="url(#pc36854475b)" style="stroke: #000000; stroke-linejoin: miter"/>
   </g>
   <g id="patch_4">
    <path d="M 353.33049 314.879985 
L 353.791902 314.713454 
L 353.795682 314.86698 
L 419.981886 313.237365 
L 419.981962 313.240466 
L 353.795758 314.870082 
L 353.799538 315.023608 
z
" clip-path="url(#pc36854475b)" style="stroke: #000000; stroke-linejoin: miter"/>
   </g>
   <g id="patch_5">
    <path d="M 413.868559 324.397354 
L 413.956118 323.914687 
L 414.090801 323.988476 
L 419.980564 313.23817 
L 419.983285 313.239661 
L 414.093522 323.989967 
L 414.228206 324.063756 
z
" clip-path="url(#pc36854475b)" style="stroke: #000000; stroke-linejoin: miter"/>
   </g>
   <g id="patch_6">
    <path d="M 449.682795 319.736374 
L 449.195023 319.78846 
L 449.227843 319.638435 
L 419.981593 313.240431 
L 419.982256 313.2374 
L 449.228506 319.635404 
L 449.261326 319.485379 
z
" clip-path="url(#pc36854475b)" style="stroke: #000000; stroke-linejoin: miter"/>
   </g>
   <g id="patch_7">
    <path d="M 408.790756 335.25709 
L 408.86333 334.771943 
L 409.000233 334.841527 
L 419.980541 313.238213 
L 419.983307 313.239618 
L 409.002999 334.842933 
L 409.139903 334.912517 
z
" clip-path="url(#pc36854475b)" style="stroke: #000000; stroke-linejoin: miter"/>
   </g>
   <g id="patch_8">
    <path d="M 362.594301 275.359531 
L 363.068148 275.48643 
L 362.983548 275.6146 
L 419.982779 313.237621 
L 419.98107 313.24021 
L 362.981839 275.617189 
L 362.897239 275.745358 
z
" clip-path="url(#pc36854475b)" style="stroke: #000000; stroke-linejoin: miter"/>
   </g>
   <g id="patch_9">
    <path d="M 410.969637 314.461094 
L 411.409942 314.244839 
L 411.430579 314.397019 
L 419.981716 313.237378 
L 419.982133 313.240453 
L 411.430996 314.400093 
L 411.451634 314.552273 
z
" clip-path="url(#pc36854475b)" style="stroke: #000000; stroke-linejoin: miter"/>
   </g>
   <g id="patch_10">
    <path d="M 395.097375 298.084807 
L 395.575529 298.194367 
L 395.495652 298.325532 
L 419.982731 313.23759 
L 419.981117 313.24024 
L 395.494039 298.328182 
L 395.414162 298.459347 
z
" clip-path="url(#pc36854475b)" style="stroke: #000000; stroke-linejoin: miter"/>
   </g>
   <g id="patch_11">
    <path d="M 314.366396 289.251077 
L 314.854567 289.202878 
L 314.820553 289.352636 
L 419.982268 313.237403 
L 419.981581 313.240428 
L 314.819866 289.355662 
L 314.785852 289.50542 
z
" clip-path="url(#pc36854475b)" style="stroke: #000000; stroke-linejoin: miter"/>
   </g>
   <g id="patch_12">
    <path d="M 331.981427 283.220302 
L 332.47196 283.223731 
L 332.422379 283.36908 
L 419.982425 313.237447 
L 419.981423 313.240384 
L 332.421377 283.372016 
L 332.371796 283.517365 
z
" clip-path="url(#pc36854475b)" style="stroke: #000000; stroke-linejoin: miter"/>
   </g>
   <g id="patch_13">
    <path d="M 312.74862 369.109233 
L 313.089657 368.756632 
L 313.160617 368.892827 
L 419.981207 313.23754 
L 419.982641 313.240291 
L 313.16205 368.895579 
L 313.23301 369.031774 
z
" clip-path="url(#pc36854475b)" style="stroke: #000000; stroke-linejoin: miter"/>
   </g>
   <g id="patch_14">
    <path d="M 383.183639 335.67262 
L 383.500245 335.297927 
L 383.580185 335.429053 
L 419.981117 313.237591 
L 419.982732 313.24024 
L 383.5818 335.431702 
L 383.66174 335.562829 
z
" clip-path="url(#pc36854475b)" style="stroke: #000000; stroke-linejoin: miter"/>
   </g>
   <g id="patch_15">
    <path d="M 346.715447 280.289866 
L 347.203498 280.339262 
L 347.140511 280.479323 
L 419.98256 313.237501 
L 419.981288 313.24033 
L 347.139238 280.482153 
L 347.076251 280.622214 
z
" clip-path="url(#pc36854475b)" style="stroke: #000000; stroke-linejoin: miter"/>
   </g>
   <g id="patch_16">
    <path d="M 383.638041 268.266178 
L 384.051198 268.53063 
L 383.931754 268.627157 
L 419.983131 313.23794 
L 419.980718 313.23989 
L 383.929341 268.629107 
L 383.809896 268.725634 
z
" clip-path="url(#pc36854475b)" style="stroke: #000000; stroke-linejoin: miter"/>
   </g>
   <g id="patch_17">
    <path d="M 372.86137 366.364921 
L 373.054119 365.913831 
L 373.16901 366.015735 
L 419.980764 313.237886 
L 419.983085 313.239945 
L 373.171331 366.017794 
L 373.286223 366.119698 
z
" clip-path="url(#pc36854475b)" style="stroke: #000000; stroke-linejoin: miter"/>
   </g>
   <g id="patch_18">
    <path d="M 381.210886 306.102986 
L 381.696649 306.034663 
L 381.66885 306.185699 
L 419.982205 313.23739 
L 419.981643 313.240441 
L 381.668289 306.18875 
L 381.64049 306.339786 
z
" clip-path="url(#pc36854475b)" style="stroke: #000000; stroke-linejoin: miter"/>
   </g>
   <g id="patch_19">
    <path d="M 391.22871 264.898335 
L 391.599935 265.219001 
L 391.467946 265.297509 
L 419.983257 313.238122 
L 419.980591 313.239708 
L 391.465279 265.299095 
L 391.33329 265.377603 
z
" clip-path="url(#pc36854475b)" style="stroke: #000000; stroke-linejoin: miter"/>
   </g>
   <g id="patch_20">
    <path d="M 367.60823 369.36 
L 367.812332 368.913932 
L 367.924608 369.018711 
L 419.98079 313.237857 
L 419.983058 313.239974 
L 367.926876 369.020828 
L 368.039152 369.125607 
z
" clip-path="url(#pc36854475b)" style="stroke: #000000; stroke-linejoin: miter"/>
   </g>
   <g id="patch_21">
    <path d="M 318.005756 312.90402 
L 318.471635 312.750425 
L 318.47113 312.903997 
L 419.981929 313.237364 
L 419.981919 313.240467 
L 318.47112 312.9071 
L 318.470616 313.060671 
z
" clip-path="url(#pc36854475b)" style="stroke: #000000; stroke-linejoin: miter"/>
   </g>
   <g id="patch_22">
    <path d="M 321.559535 309.021394 
L 322.031121 308.886336 
L 322.024546 309.039767 
L 419.98199 313.237366 
L 419.981858 313.240465 
L 322.024413 309.042867 
L 322.017839 309.196299 
z
" clip-path="url(#pc36854475b)" style="stroke: #000000; stroke-linejoin: miter"/>
   </g>
   <g id="patch_23">
    <path d="M 310.166387 110.501895 
L 310.623296 110.680411 
L 310.525043 110.79844 
L 401.351404 186.406909 
L 401.349419 186.409293 
L 310.523058 110.800825 
L 310.424804 110.918854 
z
" clip-path="url(#pc36854475b)" style="stroke: #000000; stroke-linejoin: miter"/>
   </g>
   <g id="patch_24">
    <path d="M 413.714462 208.38021 
L 413.351052 208.050714 
L 413.48489 207.975402 
L 401.34906 186.408862 
L 401.351763 186.40734 
L 413.487594 207.97388 
L 413.621432 207.898567 
z
" clip-path="url(#pc36854475b)" style="stroke: #000000; stroke-linejoin: miter"/>
   </g>
   <g id="patch_25">
    <path d="M 281.499925 129.232887 
L 281.986741 129.293254 
L 281.920617 129.431862 
L 401.351079 186.406701 
L 401.349743 186.409501 
L 281.919281 129.434662 
L 281.853158 129.57327 
z
" clip-path="url(#pc36854475b)" style="stroke: #000000; stroke-linejoin: miter"/>
   </g>
   <g id="patch_26">
    <path d="M 321.757994 216.840788 
L 322.137274 216.529692 
L 322.192121 216.673136 
L 401.349857 186.406652 
L 401.350965 186.40955 
L 322.193229 216.676034 
L 322.248076 216.819479 
z
" clip-path="url(#pc36854475b)" style="stroke: #000000; stroke-linejoin: miter"/>
   </g>
   <g id="patch_27">
    <path d="M 299.123072 158.477665 
L 299.612874 158.450678 
L 299.572399 158.598821 
L 401.35082 186.406605 
L 401.350003 186.409597 
L 299.571581 158.601814 
L 299.531106 158.749957 
z
" clip-path="url(#pc36854475b)" style="stroke: #000000; stroke-linejoin: miter"/>
   </g>
   <g id="patch_28">
    <path d="M 314.970676 66.96 
L 315.369078 67.246199 
L 315.244635 67.336191 
L 401.351668 186.407192 
L 401.349154 186.40901 
L 315.242121 67.338009 
L 315.117678 67.428 
z
" clip-path="url(#pc36854475b)" style="stroke: #000000; stroke-linejoin: miter"/>
   </g>
   <g id="patch_29">
    <path d="M 419.001438 142.396324 
L 418.972188 142.885995 
L 418.829651 142.828831 
L 401.351851 186.408679 
L 401.348972 186.407524 
L 418.826772 142.827676 
L 418.684235 142.770511 
z
" clip-path="url(#pc36854475b)" style="stroke: #000000; stroke-linejoin: miter"/>
   </g>
   <g id="patch_30">
    <path d="M 359.054954 180.779158 
L 359.536723 180.686783 
L 359.516463 180.839013 
L 401.350616 186.406563 
L 401.350207 186.409639 
L 359.516054 180.842089 
L 359.495794 180.994319 
z
" clip-path="url(#pc36854475b)" style="stroke: #000000; stroke-linejoin: miter"/>
   </g>
   <g id="patch_31">
    <path d="M 351.836489 243.194481 
L 352.025409 242.741774 
L 352.14116 242.842701 
L 401.349242 186.407082 
L 401.351581 186.409121 
L 352.143498 242.84474 
L 352.259249 242.945667 
z
" clip-path="url(#pc36854475b)" style="stroke: #000000; stroke-linejoin: miter"/>
   </g>
   <g id="patch_32">
    <path d="M 372.485463 247.47533 
L 372.544089 246.988302 
L 372.682933 247.053929 
L 401.349009 186.407438 
L 401.351814 186.408764 
L 372.685738 247.055255 
L 372.824581 247.120883 
z
" clip-path="url(#pc36854475b)" style="stroke: #000000; stroke-linejoin: miter"/>
   </g>
   <g id="patch_33">
    <path d="M 320.431406 225.805103 
L 320.781917 225.461917 
L 320.849143 225.599994 
L 401.349732 186.406706 
L 401.35109 186.409496 
L 320.850501 225.602784 
L 320.917726 225.740861 
z
" clip-path="url(#pc36854475b)" style="stroke: #000000; stroke-linejoin: miter"/>
   </g>
   <g id="patch_34">
    <path d="M 334.50102 74.098166 
L 334.872343 74.418717 
L 334.740379 74.497266 
L 401.351744 186.407308 
L 401.349078 186.408895 
L 334.737713 74.498853 
L 334.605748 74.577401 
z
" clip-path="url(#pc36854475b)" style="stroke: #000000; stroke-linejoin: miter"/>
   </g>
   <g id="patch_35">
    <path d="M 363.468027 81.291139 
L 363.771743 81.676355 
L 363.627266 81.728422 
L 401.351871 186.407575 
L 401.348952 186.408627 
L 363.624347 81.729474 
L 363.47987 81.781541 
z
" clip-path="url(#pc36854475b)" style="stroke: #000000; stroke-linejoin: miter"/>
   </g>
   <g id="patch_36">
    <path d="M 301.10054 176.307121 
L 301.579118 176.199433 
L 301.563722 176.352232 
L 401.350567 186.406558 
L 401.350256 186.409645 
L 301.563411 176.355319 
L 301.548016 176.508118 
z
" clip-path="url(#pc36854475b)" style="stroke: #000000; stroke-linejoin: miter"/>
   </g>
   <g id="patch_37">
    <path d="M 387.807138 135.99843 
L 388.077696 136.407615 
L 387.929383 136.447462 
L 401.35191 186.407699 
L 401.348913 186.408504 
L 387.926386 136.448267 
L 387.778073 136.488113 
z
" clip-path="url(#pc36854475b)" style="stroke: #000000; stroke-linejoin: miter"/>
   </g>
   <g id="patch_38">
    <path d="M 373.694035 183.123677 
L 374.174453 183.024517 
L 374.156342 183.177018 
L 401.350594 186.406561 
L 401.350228 186.409642 
L 374.155976 183.180098 
L 374.137865 183.332599 
z
" clip-path="url(#pc36854475b)" style="stroke: #000000; stroke-linejoin: miter"/>
   </g>
   <g id="patch_39">
    <path d="M 306.528147 172.515212 
L 307.01109 172.42919 
L 306.988827 172.58114 
L 401.350636 186.406566 
L 401.350187 186.409636 
L 306.988378 172.58421 
L 306.966115 172.73616 
z
" clip-path="url(#pc36854475b)" style="stroke: #000000; stroke-linejoin: miter"/>
   </g>
   <g id="patch_40">
    <path d="M 424.864793 183.192877 
L 424.424727 183.409616 
L 424.403922 183.257459 
L 401.350622 186.409638 
L 401.350201 186.406564 
L 424.403501 183.254385 
L 424.382696 183.102229 
z
" clip-path="url(#pc36854475b)" style="stroke: #000000; stroke-linejoin: miter"/>
   </g>
   <g id="patch_41">
    <path d="M 422.075699 183.795083 
L 421.633387 184.007201 
L 421.614176 183.854835 
L 401.350605 186.40964 
L 401.350217 186.406562 
L 421.613788 183.851757 
L 421.594578 183.699391 
z
" clip-path="url(#pc36854475b)" style="stroke: #000000; stroke-linejoin: miter"/>
   </g>
   <g id="patch_42">
    <path d="M 398.088532 98.461175 
L 398.260797 98.920478 
L 398.10733 98.92617 
L 401.351962 186.408044 
L 401.348861 186.408159 
L 398.10423 98.926285 
L 397.950763 98.931977 
z
" clip-path="url(#pc36854475b)" style="stroke: #000000; stroke-linejoin: miter"/>
   </g>
   <g id="patch_43">
    <path d="M 338.302781 210.469533 
L 338.682256 210.158674 
L 338.737013 210.302153 
L 401.349858 186.406652 
L 401.350965 186.40955 
L 338.738119 210.305052 
L 338.792876 210.448531 
z
" clip-path="url(#pc36854475b)" style="stroke: #000000; stroke-linejoin: miter"/>
   </g>
   <g id="patch_44">
    <path d="M 437.511677 239.876532 
L 437.122471 239.577947 
L 437.249682 239.491913 
L 401.349126 186.40897 
L 401.351696 186.407232 
L 437.252252 239.490175 
L 437.379463 239.404141 
z
" clip-path="url(#pc36854475b)" style="stroke: #000000; stroke-linejoin: miter"/>
   </g>
   <g id="patch_45">
    <path d="M 325.309035 136.2332 
L 325.782902 136.360025 
L 325.698322 136.488208 
L 401.351266 186.406806 
L 401.349557 186.409396 
L 325.696613 136.490797 
L 325.612034 136.61898 
z
" clip-path="url(#pc36854475b)" style="stroke: #000000; stroke-linejoin: miter"/>
   </g>
   <g id="patch_46">
    <path d="M 307.646865 148.64761 
L 308.136488 148.677672 
L 308.079087 148.820113 
L 401.350991 186.406662 
L 401.349832 186.40954 
L 308.077927 148.822991 
L 308.020527 148.965433 
z
" clip-path="url(#pc36854475b)" style="stroke: #000000; stroke-linejoin: miter"/>
   </g>
   <g id="patch_47">
    <path d="M 308.650261 108.043794 
L 309.105805 108.225765 
L 309.006661 108.343047 
L 401.351413 186.406916 
L 401.34941 186.409286 
L 309.004658 108.345416 
L 308.905514 108.462697 
z
" clip-path="url(#pc36854475b)" style="stroke: #000000; stroke-linejoin: miter"/>
   </g>
   <g id="patch_48">
    <path d="M 437.457334 222.301941 
L 437.01793 222.083862 
L 437.126201 221.974949 
L 401.349318 186.409201 
L 401.351505 186.407001 
L 437.128388 221.972748 
L 437.236658 221.863835 
z
" clip-path="url(#pc36854475b)" style="stroke: #000000; stroke-linejoin: miter"/>
   </g>
   <g id="patch_49">
    <path d="M 327.362949 256.23648 
L 327.594919 255.804249 
L 327.700327 255.915935 
L 401.349347 186.406973 
L 401.351476 186.409229 
L 327.702456 255.918191 
L 327.807864 256.029877 
z
" clip-path="url(#pc36854475b)" style="stroke: #000000; stroke-linejoin: miter"/>
   </g>
   <g id="patch_50">
    <path d="M 341.159554 247.800879 
L 341.374584 247.359975 
L 341.484245 247.467489 
L 401.349304 186.407015 
L 401.351519 186.409187 
L 341.48646 247.469661 
L 341.59612 247.577174 
z
" clip-path="url(#pc36854475b)" style="stroke: #000000; stroke-linejoin: miter"/>
   </g>
   <g id="patch_51">
    <path d="M 387.114303 87.288038 
L 387.334011 87.726629 
L 387.181999 87.748462 
L 401.351947 186.407881 
L 401.348876 186.408322 
L 387.178928 87.748903 
L 387.026915 87.770736 
z
" clip-path="url(#pc36854475b)" style="stroke: #000000; stroke-linejoin: miter"/>
   </g>
   <g id="patch_52">
    <path d="M 166.061342 284.064207 
L 166.302865 283.63724 
L 166.405763 283.751242 
L 208.294777 245.942215 
L 208.296855 245.944518 
L 166.407842 283.753545 
L 166.51074 283.867547 
z
" clip-path="url(#pc36854475b)" style="stroke: #000000; stroke-linejoin: miter"/>
   </g>
   <g id="patch_53">
    <path d="M 237.64809 291.406746 
L 237.265349 291.099917 
L 237.394368 291.016619 
L 208.294513 245.944208 
L 208.297119 245.942526 
L 237.396975 291.014937 
L 237.525994 290.931639 
z
" clip-path="url(#pc36854475b)" style="stroke: #000000; stroke-linejoin: miter"/>
   </g>
   <g id="patch_54">
    <path d="M 143.196074 303.537704 
L 143.441833 303.113161 
L 143.543592 303.228181 
L 208.294788 245.942205 
L 208.296844 245.944529 
L 143.545648 303.230504 
L 143.647407 303.345524 
z
" clip-path="url(#pc36854475b)" style="stroke: #000000; stroke-linejoin: miter"/>
   </g>
   <g id="patch_55">
    <path d="M 232.013909 269.627918 
L 231.574997 269.40885 
L 231.683513 269.300181 
L 208.29472 245.944465 
L 208.296912 245.942269 
L 231.685705 269.297986 
L 231.79422 269.189317 
z
" clip-path="url(#pc36854475b)" style="stroke: #000000; stroke-linejoin: miter"/>
   </g>
   <g id="patch_56">
    <path d="M 279.964843 189.209573 
L 279.696242 189.620045 
L 279.600923 189.499634 
L 208.296779 245.944583 
L 208.294853 245.942151 
L 279.598998 189.497201 
L 279.503679 189.37679 
z
" clip-path="url(#pc36854475b)" style="stroke: #000000; stroke-linejoin: miter"/>
   </g>
   <g id="patch_57">
    <path d="M 276.295753 270.755968 
L 275.805402 270.742172 
L 275.858044 270.597903 
L 208.295284 245.944824 
L 208.296348 245.94191 
L 275.859108 270.594989 
L 275.91175 270.450721 
z
" clip-path="url(#pc36854475b)" style="stroke: #000000; stroke-linejoin: miter"/>
   </g>
   <g id="patch_58">
    <path d="M 200.934386 282.464357 
L 200.874274 281.977509 
L 201.024819 282.007854 
L 208.294295 245.94306 
L 208.297337 245.943673 
L 201.027861 282.008467 
L 201.178405 282.038812 
z
" clip-path="url(#pc36854475b)" style="stroke: #000000; stroke-linejoin: miter"/>
   </g>
   <g id="patch_59">
    <path d="M 201.56714 321.110943 
L 201.454127 320.633594 
L 201.607088 320.647287 
L 208.294271 245.943229 
L 208.297361 245.943505 
L 201.610178 320.647563 
L 201.763139 320.661256 
z
" clip-path="url(#pc36854475b)" style="stroke: #000000; stroke-linejoin: miter"/>
   </g>
   <g id="patch_60">
    <path d="M 303.506943 263.951747 
L 303.020849 264.01768 
L 303.04939 263.866783 
L 208.295528 245.944891 
L 208.296104 245.941843 
L 303.049967 263.863735 
L 303.078508 263.712838 
z
" clip-path="url(#pc36854475b)" style="stroke: #000000; stroke-linejoin: miter"/>
   </g>
   <g id="patch_61">
    <path d="M 196.844027 295.715059 
L 196.797203 295.226754 
L 196.946865 295.261189 
L 208.294304 245.943019 
L 208.297328 245.943715 
L 196.949888 295.261885 
L 197.09955 295.29632 
z
" clip-path="url(#pc36854475b)" style="stroke: #000000; stroke-linejoin: miter"/>
   </g>
   <g id="patch_62">
    <path d="M 144.888109 322.940254 
L 145.064199 322.482405 
L 145.182748 322.580031 
L 208.294619 245.942381 
L 208.297013 245.944353 
L 145.185142 322.582003 
L 145.303691 322.679629 
z
" clip-path="url(#pc36854475b)" style="stroke: #000000; stroke-linejoin: miter"/>
   </g>
   <g id="patch_63">
    <path d="M 187.668081 345.035377 
L 187.611055 344.548158 
L 187.761404 344.579456 
L 208.294297 245.943051 
L 208.297335 245.943683 
L 187.764442 344.580088 
L 187.914791 344.611386 
z
" clip-path="url(#pc36854475b)" style="stroke: #000000; stroke-linejoin: miter"/>
   </g>
   <g id="patch_64">
    <path d="M 255.818913 317.012545 
L 255.43128 316.711921 
L 255.558941 316.626556 
L 208.294526 245.944229 
L 208.297105 245.942505 
L 255.56152 316.624831 
L 255.689181 316.539466 
z
" clip-path="url(#pc36854475b)" style="stroke: #000000; stroke-linejoin: miter"/>
   </g>
   <g id="patch_65">
    <path d="M 213.164575 324.278591 
L 212.980881 323.823739 
L 213.134158 323.814212 
L 208.294268 245.943463 
L 208.297364 245.943271 
L 213.137255 323.814019 
L 213.290531 323.804493 
z
" clip-path="url(#pc36854475b)" style="stroke: #000000; stroke-linejoin: miter"/>
   </g>
   <g id="patch_66">
    <path d="M 186.268003 341.375402 
L 186.22152 340.887065 
L 186.371158 340.921605 
L 208.294304 245.943018 
L 208.297327 245.943716 
L 186.374181 340.922302 
L 186.523819 340.956842 
z
" clip-path="url(#pc36854475b)" style="stroke: #000000; stroke-linejoin: miter"/>
   </g>
   <g id="patch_67">
    <path d="M 249.920812 276.72925 
L 249.454413 276.577242 
L 249.545733 276.453771 
L 208.294894 245.944614 
L 208.296738 245.94212 
L 249.547578 276.451276 
L 249.638897 276.327805 
z
" clip-path="url(#pc36854475b)" style="stroke: #000000; stroke-linejoin: miter"/>
   </g>
   <g id="patch_68">
    <path d="M 151.466543 343.420286 
L 151.566919 342.94012 
L 151.699591 343.017468 
L 208.294476 245.942586 
L 208.297156 245.944148 
L 151.702271 343.019031 
L 151.834943 343.096379 
z
" clip-path="url(#pc36854475b)" style="stroke: #000000; stroke-linejoin: miter"/>
   </g>
   <g id="patch_69">
    <path d="M 208.202531 317.156788 
L 208.048016 316.691213 
L 208.201589 316.691414 
L 208.294265 245.943365 
L 208.297367 245.943369 
L 208.204691 316.691419 
L 208.358264 316.69162 
z
" clip-path="url(#pc36854475b)" style="stroke: #000000; stroke-linejoin: miter"/>
   </g>
   <g id="patch_70">
    <path d="M 212.964398 217.655426 
L 213.041672 218.139846 
L 212.890149 218.114839 
L 208.297346 245.94362 
L 208.294285 245.943114 
L 212.887088 218.114334 
L 212.735565 218.089327 
z
" clip-path="url(#pc36854475b)" style="stroke: #000000; stroke-linejoin: miter"/>
   </g>
   <g id="patch_71">
    <path d="M 239.573047 311.615226 
L 239.232892 311.261774 
L 239.371542 311.195739 
L 208.294415 245.944034 
L 208.297216 245.9427 
L 239.374343 311.194405 
L 239.512994 311.128371 
z
" clip-path="url(#pc36854475b)" style="stroke: #000000; stroke-linejoin: miter"/>
   </g>
   <g id="patch_72">
    <path d="M 264.617165 355.805422 
L 264.266822 355.462066 
L 264.403482 355.392006 
L 208.294436 245.944075 
L 208.297196 245.942659 
L 264.406243 355.390591 
L 264.542904 355.320531 
z
" clip-path="url(#pc36854475b)" style="stroke: #000000; stroke-linejoin: miter"/>
   </g>
   <g id="patch_73">
    <path d="M 255.133641 218.581597 
L 254.810059 218.950282 
L 254.732594 218.817678 
L 208.296598 245.944706 
L 208.295033 245.942028 
L 254.731029 218.814999 
L 254.653564 218.682395 
z
" clip-path="url(#pc36854475b)" style="stroke: #000000; stroke-linejoin: miter"/>
   </g>
   <g id="patch_74">
    <path d="M 160.751431 283.606596 
L 161.019891 283.196031 
L 161.115251 283.31641 
L 208.294853 245.942151 
L 208.296779 245.944583 
L 161.117177 283.318842 
L 161.212537 283.43922 
z
" clip-path="url(#pc36854475b)" style="stroke: #000000; stroke-linejoin: miter"/>
   </g>
   <g id="patch_75">
    <path d="M 212.19206 224.705501 
L 212.260663 225.191225 
L 212.109612 225.163514 
L 208.297342 245.943647 
L 208.29429 245.943087 
L 212.10656 225.162954 
L 211.955508 225.135242 
z
" clip-path="url(#pc36854475b)" style="stroke: #000000; stroke-linejoin: miter"/>
   </g>
   <g id="patch_76">
    <path d="M 163.768017 320.279494 
L 163.874081 319.800553 
L 164.005826 319.879469 
L 208.294485 245.94257 
L 208.297147 245.944164 
L 164.008488 319.881064 
L 164.140233 319.95998 
z
" clip-path="url(#pc36854475b)" style="stroke: #000000; stroke-linejoin: miter"/>
   </g>
   <g id="patch_77">
    <path d="M 187.026404 268.766387 
L 187.230197 268.320177 
L 187.342545 268.424878 
L 208.294681 245.942309 
L 208.296951 245.944425 
L 187.344815 268.426993 
L 187.457164 268.531694 
z
" clip-path="url(#pc36854475b)" style="stroke: #000000; stroke-linejoin: miter"/>
   </g>
   <g id="patch_78">
    <path d="M 168.030383 339.904786 
L 168.071104 339.415934 
L 168.212262 339.476424 
L 208.29439 245.942756 
L 208.297242 245.943978 
L 168.215114 339.477647 
L 168.356271 339.538137 
z
" clip-path="url(#pc36854475b)" style="stroke: #000000; stroke-linejoin: miter"/>
   </g>
   <g id="patch_79">
    <path d="M 234.724527 297.331688 
L 234.373739 296.988787 
L 234.510308 296.91855 
L 208.294436 245.944076 
L 208.297195 245.942657 
L 234.513067 296.917131 
L 234.649637 296.846894 
z
" clip-path="url(#pc36854475b)" style="stroke: #000000; stroke-linejoin: miter"/>
   </g>
   <g id="patch_80">
    <path d="M 235.028463 302.403371 
L 234.689112 302.049146 
L 234.827913 301.983427 
L 208.294414 245.944031 
L 208.297218 245.942703 
L 234.830717 301.9821 
L 234.969517 301.916381 
z
" clip-path="url(#pc36854475b)" style="stroke: #000000; stroke-linejoin: miter"/>
   </g>
   <g id="patch_81">
    <path d="M 194.310558 322.666479 
L 194.241403 322.180834 
L 194.392486 322.208373 
L 208.29429 245.943089 
L 208.297342 245.943645 
L 194.395538 322.20893 
L 194.546621 322.23647 
z
" clip-path="url(#pc36854475b)" style="stroke: #000000; stroke-linejoin: miter"/>
   </g>
   <g id="patch_82">
    <path d="M 209.739106 326.86986 
L 209.575709 326.407329 
L 209.729257 326.40459 
L 208.294265 245.943395 
L 208.297367 245.943339 
L 209.732359 326.404535 
L 209.885907 326.401797 
z
" clip-path="url(#pc36854475b)" style="stroke: #000000; stroke-linejoin: miter"/>
   </g>
   <g id="patch_83">
    <path d="M 289.065591 178.668464 
L 288.807289 179.085494 
L 288.709003 178.967493 
L 208.296809 245.944559 
L 208.294823 245.942175 
L 288.707017 178.965109 
L 288.608731 178.847107 
z
" clip-path="url(#pc36854475b)" style="stroke: #000000; stroke-linejoin: miter"/>
   </g>
   <g id="patch_84">
    <path d="M 168.572024 104.221525 
L 168.744847 104.680618 
L 168.591387 104.686496 
L 172.62004 209.858135 
L 172.61694 209.858254 
L 168.588287 104.686615 
L 168.434827 104.692493 
z
" clip-path="url(#pc36854475b)" style="stroke: #000000; stroke-linejoin: miter"/>
   </g>
   <g id="patch_85">
    <path d="M 247.043424 171.29588 
L 246.701588 171.647708 
L 246.630937 171.511352 
L 172.619203 209.859572 
L 172.617776 209.856817 
L 246.62951 171.508597 
L 246.558859 171.372241 
z
" clip-path="url(#pc36854475b)" style="stroke: #000000; stroke-linejoin: miter"/>
   </g>
   <g id="patch_86">
    <path d="M 219.799078 135.570656 
L 219.680529 136.046661 
L 219.550892 135.964327 
L 172.619799 209.859026 
L 172.61718 209.857363 
L 219.548273 135.962664 
L 219.418636 135.88033 
z
" clip-path="url(#pc36854475b)" style="stroke: #000000; stroke-linejoin: miter"/>
   </g>
   <g id="patch_87">
    <path d="M 142.842457 183.70088 
L 143.294461 183.891474 
L 143.193107 184.00685 
L 172.619514 209.857029 
L 172.617466 209.85936 
L 143.191059 184.009181 
L 143.089704 184.124558 
z
" clip-path="url(#pc36854475b)" style="stroke: #000000; stroke-linejoin: miter"/>
   </g>
   <g id="patch_88">
    <path d="M 150.054648 132.402614 
L 150.333739 132.806027 
L 150.186296 132.848979 
L 172.619979 209.857761 
L 172.617001 209.858629 
L 150.183317 132.849847 
L 150.035873 132.892799 
z
" clip-path="url(#pc36854475b)" style="stroke: #000000; stroke-linejoin: miter"/>
   </g>
   <g id="patch_89">
    <path d="M 150.407922 181.869505 
L 150.818715 182.137616 
L 150.698418 182.233078 
L 172.619705 209.85723 
L 172.617275 209.859159 
L 150.695988 182.235007 
L 150.57569 182.330469 
z
" clip-path="url(#pc36854475b)" style="stroke: #000000; stroke-linejoin: miter"/>
   </g>
   <g id="patch_90">
    <path d="M 217.926902 183.553581 
L 217.602326 183.921391 
L 217.525219 183.788578 
L 172.619269 209.859536 
L 172.617711 209.856853 
L 217.523661 183.785895 
L 217.446555 183.653083 
z
" clip-path="url(#pc36854475b)" style="stroke: #000000; stroke-linejoin: miter"/>
   </g>
   <g id="patch_91">
    <path d="M 225.117564 130.376734 
L 224.990514 130.850541 
L 224.862371 130.7659 
L 172.619784 209.85905 
L 172.617195 209.85734 
L 224.859782 130.76419 
L 224.73164 130.67955 
z
" clip-path="url(#pc36854475b)" style="stroke: #000000; stroke-linejoin: miter"/>
   </g>
   <g id="patch_92">
    <path d="M 217.50347 138.906013 
L 217.385769 139.382228 
L 217.255986 139.300125 
L 172.619801 209.859024 
L 172.617179 209.857365 
L 217.253364 139.298467 
L 217.12358 139.216365 
z
" clip-path="url(#pc36854475b)" style="stroke: #000000; stroke-linejoin: miter"/>
   </g>
   <g id="patch_93">
    <path d="M 156.640783 131.918973 
L 156.886205 132.343711 
L 156.735761 132.374552 
L 172.620009 209.857883 
L 172.61697 209.858506 
L 156.732722 132.375175 
L 156.582278 132.406016 
z
" clip-path="url(#pc36854475b)" style="stroke: #000000; stroke-linejoin: miter"/>
   </g>
   <g id="patch_94">
    <path d="M 144.286807 68.115626 
L 144.530137 68.541566 
L 144.379543 68.571667 
L 172.620011 209.857891 
L 172.616969 209.858499 
L 144.376501 68.572275 
L 144.225907 68.602376 
z
" clip-path="url(#pc36854475b)" style="stroke: #000000; stroke-linejoin: miter"/>
   </g>
   <g id="patch_95">
    <path d="M 228.105918 178.011096 
L 227.77952 178.377291 
L 227.703074 178.244098 
L 172.619262 209.85954 
L 172.617718 209.856849 
L 227.701529 178.241407 
L 227.625083 178.108214 
z
" clip-path="url(#pc36854475b)" style="stroke: #000000; stroke-linejoin: miter"/>
   </g>
   <g id="patch_96">
    <path d="M 155.104006 180.607667 
L 155.476167 180.927245 
L 155.344409 181.006139 
L 172.619821 209.857398 
L 172.617159 209.858992 
L 155.341747 181.007733 
L 155.209988 181.086627 
z
" clip-path="url(#pc36854475b)" style="stroke: #000000; stroke-linejoin: miter"/>
   </g>
   <g id="patch_97">
    <path d="M 140.717205 189.821702 
L 141.1938 189.937857 
L 141.112119 190.067906 
L 172.619315 209.856881 
L 172.617665 209.859508 
L 141.110469 190.070533 
L 141.028788 190.200582 
z
" clip-path="url(#pc36854475b)" style="stroke: #000000; stroke-linejoin: miter"/>
   </g>
   <g id="patch_98">
    <path d="M 205.269572 168.479109 
L 205.103076 168.940534 
L 204.982516 168.845404 
L 172.619708 209.859156 
L 172.617272 209.857234 
L 204.98008 168.843482 
L 204.85952 168.748351 
z
" clip-path="url(#pc36854475b)" style="stroke: #000000; stroke-linejoin: miter"/>
   </g>
   <g id="patch_99">
    <path d="M 217.324555 102.801987 
L 217.28837 103.291196 
L 217.146658 103.232017 
L 172.619921 209.858792 
L 172.617058 209.857597 
L 217.143795 103.230822 
L 217.002082 103.171643 
z
" clip-path="url(#pc36854475b)" style="stroke: #000000; stroke-linejoin: miter"/>
   </g>
   <g id="patch_100">
    <path d="M 240.237909 101.856622 
L 240.122431 102.333381 
L 239.992266 102.251885 
L 172.619805 209.859018 
L 172.617175 209.857372 
L 239.989637 102.250239 
L 239.859472 102.168743 
z
" clip-path="url(#pc36854475b)" style="stroke: #000000; stroke-linejoin: miter"/>
   </g>
   <g id="patch_101">
    <path d="M 198.729688 180.428545 
L 198.536869 180.879605 
L 198.421993 180.777683 
L 172.61965 209.859224 
L 172.617329 209.857165 
L 198.419672 180.775623 
L 198.304797 180.673701 
z
" clip-path="url(#pc36854475b)" style="stroke: #000000; stroke-linejoin: miter"/>
   </g>
   <g id="patch_102">
    <path d="M 185.147424 162.337135 
L 185.178781 162.826677 
L 185.030282 162.787525 
L 172.61999 209.85859 
L 172.61699 209.857799 
L 185.027282 162.786734 
L 184.878784 162.747583 
z
" clip-path="url(#pc36854475b)" style="stroke: #000000; stroke-linejoin: miter"/>
   </g>
   <g id="patch_103">
    <path d="M 72 384.48 
L 72 51.84 
" style="fill: none; stroke: #000000; stroke-width: 0.8; stroke-linejoin: miter; stroke-linecap: square"/>
   </g>
   <g id="patch_104">
    <path d="M 518.4 384.48 
L 518.4 51.84 
" style="fill: none; stroke: #000000; stroke-width: 0.8; stroke-linejoin: miter; stroke-linecap: square"/>
   </g>
   <g id="patch_105">
    <path d="M 72 384.48 
L 518.4 384.48 
" style="fill: none; stroke: #000000; stroke-width: 0.8; stroke-linejoin: miter; stroke-linecap: square"/>
   </g>
   <g id="patch_106">
    <path d="M 72 51.84 
L 518.4 51.84 
" style="fill: none; stroke: #000000; stroke-width: 0.8; stroke-linejoin: miter; stroke-linecap: square"/>
   </g>
   <g id="text_17">
    <!-- Customers and Warehouses Map -->
    <g transform="translate(196.78875 45.84) scale(0.12 -0.12)">
     <defs>
      <path id="DejaVuSans-43" d="M 4122 4306 
L 4122 3641 
Q 3803 3938 3442 4084 
Q 3081 4231 2675 4231 
Q 1875 4231 1450 3742 
Q 1025 3253 1025 2328 
Q 1025 1406 1450 917 
Q 1875 428 2675 428 
Q 3081 428 3442 575 
Q 3803 722 4122 1019 
L 4122 359 
Q 3791 134 3420 21 
Q 3050 -91 2638 -91 
Q 1578 -91 968 557 
Q 359 1206 359 2328 
Q 359 3453 968 4101 
Q 1578 4750 2638 4750 
Q 3056 4750 3426 4639 
Q 3797 4528 4122 4306 
z
" transform="scale(0.015625)"/>
      <path id="DejaVuSans-75" d="M 544 1381 
L 544 3500 
L 1119 3500 
L 1119 1403 
Q 1119 906 1312 657 
Q 1506 409 1894 409 
Q 2359 409 2629 706 
Q 2900 1003 2900 1516 
L 2900 3500 
L 3475 3500 
L 3475 0 
L 2900 0 
L 2900 538 
Q 2691 219 2414 64 
Q 2138 -91 1772 -91 
Q 1169 -91 856 284 
Q 544 659 544 1381 
z
M 1991 3584 
L 1991 3584 
z
" transform="scale(0.015625)"/>
      <path id="DejaVuSans-73" d="M 2834 3397 
L 2834 2853 
Q 2591 2978 2328 3040 
Q 2066 3103 1784 3103 
Q 1356 3103 1142 2972 
Q 928 2841 928 2578 
Q 928 2378 1081 2264 
Q 1234 2150 1697 2047 
L 1894 2003 
Q 2506 1872 2764 1633 
Q 3022 1394 3022 966 
Q 3022 478 2636 193 
Q 2250 -91 1575 -91 
Q 1294 -91 989 -36 
Q 684 19 347 128 
L 347 722 
Q 666 556 975 473 
Q 1284 391 1588 391 
Q 1994 391 2212 530 
Q 2431 669 2431 922 
Q 2431 1156 2273 1281 
Q 2116 1406 1581 1522 
L 1381 1569 
Q 847 1681 609 1914 
Q 372 2147 372 2553 
Q 372 3047 722 3315 
Q 1072 3584 1716 3584 
Q 2034 3584 2315 3537 
Q 2597 3491 2834 3397 
z
" transform="scale(0.015625)"/>
      <path id="DejaVuSans-6d" d="M 3328 2828 
Q 3544 3216 3844 3400 
Q 4144 3584 4550 3584 
Q 5097 3584 5394 3201 
Q 5691 2819 5691 2113 
L 5691 0 
L 5113 0 
L 5113 2094 
Q 5113 2597 4934 2840 
Q 4756 3084 4391 3084 
Q 3944 3084 3684 2787 
Q 3425 2491 3425 1978 
L 3425 0 
L 2847 0 
L 2847 2094 
Q 2847 2600 2669 2842 
Q 2491 3084 2119 3084 
Q 1678 3084 1418 2786 
Q 1159 2488 1159 1978 
L 1159 0 
L 581 0 
L 581 3500 
L 1159 3500 
L 1159 2956 
Q 1356 3278 1631 3431 
Q 1906 3584 2284 3584 
Q 2666 3584 2933 3390 
Q 3200 3197 3328 2828 
z
" transform="scale(0.015625)"/>
      <path id="DejaVuSans-57" d="M 213 4666 
L 850 4666 
L 1831 722 
L 2809 4666 
L 3519 4666 
L 4500 722 
L 5478 4666 
L 6119 4666 
L 4947 0 
L 4153 0 
L 3169 4050 
L 2175 0 
L 1381 0 
L 213 4666 
z
" transform="scale(0.015625)"/>
      <path id="DejaVuSans-68" d="M 3513 2113 
L 3513 0 
L 2938 0 
L 2938 2094 
Q 2938 2591 2744 2837 
Q 2550 3084 2163 3084 
Q 1697 3084 1428 2787 
Q 1159 2491 1159 1978 
L 1159 0 
L 581 0 
L 581 4863 
L 1159 4863 
L 1159 2956 
Q 1366 3272 1645 3428 
Q 1925 3584 2291 3584 
Q 2894 3584 3203 3211 
Q 3513 2838 3513 2113 
z
" transform="scale(0.015625)"/>
      <path id="DejaVuSans-4d" d="M 628 4666 
L 1569 4666 
L 2759 1491 
L 3956 4666 
L 4897 4666 
L 4897 0 
L 4281 0 
L 4281 4097 
L 3078 897 
L 2444 897 
L 1241 4097 
L 1241 0 
L 628 0 
L 628 4666 
z
" transform="scale(0.015625)"/>
      <path id="DejaVuSans-70" d="M 1159 525 
L 1159 -1331 
L 581 -1331 
L 581 3500 
L 1159 3500 
L 1159 2969 
Q 1341 3281 1617 3432 
Q 1894 3584 2278 3584 
Q 2916 3584 3314 3078 
Q 3713 2572 3713 1747 
Q 3713 922 3314 415 
Q 2916 -91 2278 -91 
Q 1894 -91 1617 61 
Q 1341 213 1159 525 
z
M 3116 1747 
Q 3116 2381 2855 2742 
Q 2594 3103 2138 3103 
Q 1681 3103 1420 2742 
Q 1159 2381 1159 1747 
Q 1159 1113 1420 752 
Q 1681 391 2138 391 
Q 2594 391 2855 752 
Q 3116 1113 3116 1747 
z
" transform="scale(0.015625)"/>
     </defs>
     <use xlink:href="#DejaVuSans-43"/>
     <use xlink:href="#DejaVuSans-75" transform="translate(69.824219 0)"/>
     <use xlink:href="#DejaVuSans-73" transform="translate(133.203125 0)"/>
     <use xlink:href="#DejaVuSans-74" transform="translate(185.302734 0)"/>
     <use xlink:href="#DejaVuSans-6f" transform="translate(224.511719 0)"/>
     <use xlink:href="#DejaVuSans-6d" transform="translate(285.693359 0)"/>
     <use xlink:href="#DejaVuSans-65" transform="translate(383.105469 0)"/>
     <use xlink:href="#DejaVuSans-72" transform="translate(444.628906 0)"/>
     <use xlink:href="#DejaVuSans-73" transform="translate(485.742188 0)"/>
     <use xlink:href="#DejaVuSans-20" transform="translate(537.841797 0)"/>
     <use xlink:href="#DejaVuSans-61" transform="translate(569.628906 0)"/>
     <use xlink:href="#DejaVuSans-6e" transform="translate(630.908203 0)"/>
     <use xlink:href="#DejaVuSans-64" transform="translate(694.287109 0)"/>
     <use xlink:href="#DejaVuSans-20" transform="translate(757.763672 0)"/>
     <use xlink:href="#DejaVuSans-57" transform="translate(789.550781 0)"/>
     <use xlink:href="#DejaVuSans-61" transform="translate(882.052734 0)"/>
     <use xlink:href="#DejaVuSans-72" transform="translate(943.332031 0)"/>
     <use xlink:href="#DejaVuSans-65" transform="translate(982.195312 0)"/>
     <use xlink:href="#DejaVuSans-68" transform="translate(1043.71875 0)"/>
     <use xlink:href="#DejaVuSans-6f" transform="translate(1107.097656 0)"/>
     <use xlink:href="#DejaVuSans-75" transform="translate(1168.279297 0)"/>
     <use xlink:href="#DejaVuSans-73" transform="translate(1231.658203 0)"/>
     <use xlink:href="#DejaVuSans-65" transform="translate(1283.757812 0)"/>
     <use xlink:href="#DejaVuSans-73" transform="translate(1345.28125 0)"/>
     <use xlink:href="#DejaVuSans-20" transform="translate(1397.380859 0)"/>
     <use xlink:href="#DejaVuSans-4d" transform="translate(1429.167969 0)"/>
     <use xlink:href="#DejaVuSans-61" transform="translate(1515.447266 0)"/>
     <use xlink:href="#DejaVuSans-70" transform="translate(1576.726562 0)"/>
    </g>
   </g>
   <g id="legend_1">
    <g id="patch_107">
     <path d="M 445.937188 84.19625 
L 538.72 84.19625 
Q 540.72 84.19625 540.72 82.19625 
L 540.72 53.84 
Q 540.72 51.84 538.72 51.84 
L 445.937188 51.84 
Q 443.937188 51.84 443.937188 53.84 
L 443.937188 82.19625 
Q 443.937188 84.19625 445.937188 84.19625 
z
" style="fill: #ffffff; opacity: 0.8; stroke: #cccccc; stroke-linejoin: miter"/>
    </g>
    <g id="PathCollection_4">
     <g>
      <use xlink:href="#mdc18f69490" x="457.937188" y="60.813437" style="fill: #0000ff; stroke: #0000ff"/>
     </g>
    </g>
    <g id="text_18">
     <!-- Customers -->
     <g transform="translate(475.937188 63.438437) scale(0.1 -0.1)">
      <use xlink:href="#DejaVuSans-43"/>
      <use xlink:href="#DejaVuSans-75" transform="translate(69.824219 0)"/>
      <use xlink:href="#DejaVuSans-73" transform="translate(133.203125 0)"/>
      <use xlink:href="#DejaVuSans-74" transform="translate(185.302734 0)"/>
      <use xlink:href="#DejaVuSans-6f" transform="translate(224.511719 0)"/>
      <use xlink:href="#DejaVuSans-6d" transform="translate(285.693359 0)"/>
      <use xlink:href="#DejaVuSans-65" transform="translate(383.105469 0)"/>
      <use xlink:href="#DejaVuSans-72" transform="translate(444.628906 0)"/>
      <use xlink:href="#DejaVuSans-73" transform="translate(485.742188 0)"/>
     </g>
    </g>
    <g id="PathCollection_5">
     <path d="M 451.813463 81.615287 
L 464.060912 81.615287 
L 464.060912 69.367838 
L 451.813463 69.367838 
z
" style="fill: #ff0000"/>
    </g>
    <g id="text_19">
     <!-- Warehouses -->
     <g transform="translate(475.937188 78.116562) scale(0.1 -0.1)">
      <use xlink:href="#DejaVuSans-57"/>
      <use xlink:href="#DejaVuSans-61" transform="translate(92.501953 0)"/>
      <use xlink:href="#DejaVuSans-72" transform="translate(153.78125 0)"/>
      <use xlink:href="#DejaVuSans-65" transform="translate(192.644531 0)"/>
      <use xlink:href="#DejaVuSans-68" transform="translate(254.167969 0)"/>
      <use xlink:href="#DejaVuSans-6f" transform="translate(317.546875 0)"/>
      <use xlink:href="#DejaVuSans-75" transform="translate(378.728516 0)"/>
      <use xlink:href="#DejaVuSans-73" transform="translate(442.107422 0)"/>
      <use xlink:href="#DejaVuSans-65" transform="translate(494.207031 0)"/>
      <use xlink:href="#DejaVuSans-73" transform="translate(555.730469 0)"/>
     </g>
    </g>
   </g>
  </g>
 </g>
 <defs>
  <clipPath id="pc36854475b">
   <rect x="72" y="51.84" width="446.4" height="332.64"/>
  </clipPath>
 </defs>
</svg>
